<svg baseProfile="full" height="28" version="1.1" viewBox="0 0 152 28" width="152" xmlns="http://www.w3.org/2000/svg" xmlns:ev="http://www.w3.org/2001/xml-events" xmlns:xlink="http://www.w3.org/1999/xlink"><defs /><g><path d="M4.398699891657638 21.659804983748646V19.172264355362948H10.76923076923077Q12.589382448537378 19.172264355362948 13.62080173347779 18.09534127843987Q14.652221018418201 17.018418201516795 14.652221018418201 15.501625135427954Q14.652221018418201 14.470205850487542 14.197183098591548 13.63596966413868Q13.742145178764897 12.801733477789817 12.877573131094259 12.316359696641388Q12.01300108342362 11.830985915492958 10.8602383531961 11.830985915492958H4.398699891657638V9.34344528710726H10.435536294691225Q11.952329360780066 9.34344528710726 12.847237269772481 8.539544962080175Q13.742145178764897 7.735644637053088 13.742145178764897 6.218851570964247Q13.742145178764897 4.702058504875406 12.801733477789817 3.8981581798483216Q11.861321776814735 3.0942578548212367 10.314192849404117 3.0942578548212367H4.398699891657638V0.6067172264355349H10.37486457204767Q12.437703141928495 0.6067172264355349 13.817984832069339 1.3499458288190684Q15.198266522210185 2.093174431202602 15.91115926327194 3.3066088840736736Q16.624052004333695 4.520043336944745 16.624052004333695 5.976164680390033Q16.624052004333695 7.674972914409535 15.698808234019502 8.949079089924162Q14.77356446370531 10.223185265438786 12.983748645720476 10.951245937161431L13.22643553629469 10.041170097508125Q15.258938244853738 10.76923076923077 16.39653304442037 12.240520043336945Q17.534127843987 13.71180931744312 17.534127843987 15.71397616468039Q17.534127843987 17.382448537378117 16.715059588299027 18.717226435536297Q15.895991332611052 20.052004333694477 14.364030335861322 20.855904658721563Q12.832069339111593 21.659804983748646 10.617551462621886 21.659804983748646ZM2.4875406283856987 21.659804983748646V0.6067172264355349H5.33911159263272V21.659804983748646Z M20.901408450704224 21.659804983748646V0.0H23.63163596966414V21.659804983748646Z M33.763813651137596 21.963163596966414Q31.7919826652221 21.963163596966414 30.18418201516793 20.977248104008666Q28.57638136511376 19.99133261105092 27.651137594799568 18.29252437703142Q26.725893824485375 16.593716143011918 26.725893824485375 14.470205850487542Q26.725893824485375 12.346695557963164 27.651137594799568 10.647887323943662Q28.57638136511376 8.94907908992416 30.169014084507044 7.947995666305525Q31.761646803900327 6.94691224268689 33.763813651137596 6.94691224268689Q35.40195016251354 6.94691224268689 36.691224268689055 7.629469122426869Q37.980498374864574 8.312026002166848 38.769230769230774 9.510292524377032Q39.557963163596966 10.708559046587215 39.648970747562295 12.286023835319611V16.624052004333695Q39.557963163596966 18.171180931744313 38.78439869989165 19.384615384615387Q38.01083423618635 20.598049837486457 36.72156013001083 21.280606717226433Q35.43228602383532 21.963163596966414 33.763813651137596 21.963163596966414ZM34.21885157096425 19.384615384615387Q36.2513542795233 19.384615384615387 37.49512459371614 18.00433369447454Q38.73889490790899 16.624052004333695 38.73889490790899 14.470205850487542Q38.73889490790899 12.983748645720476 38.17768147345612 11.876489707475624Q37.61646803900325 10.76923076923077 36.58504875406284 10.147345612134345Q35.55362946912243 9.525460455037921 34.18851570964247 9.525460455037921Q32.82340195016251 9.525460455037921 31.776814734561214 10.162513542795233Q30.730227518959914 10.799566630552546 30.138678223185266 11.9068255687974Q29.54712892741062 13.014084507042254 29.54712892741062 14.439869989165764Q29.54712892741062 15.89599133261105 30.138678223185266 17.003250270855904Q30.730227518959914 18.11050920910076 31.791982665222104 18.74756229685807Q32.853737811484294 19.384615384615387 34.21885157096425 19.384615384615387ZM38.55687973997833 21.659804983748646V17.776814734561214L39.07258938244854 14.257854821235103L38.55687973997833 10.76923076923077V7.25027085590466H41.31744312026002V21.659804983748646Z M51.26760563380282 28.0Q49.053087757313115 28.0 47.339111592632726 27.180931744312026Q45.62513542795234 26.361863488624053 44.593716143011925 24.87540628385699L46.353196099674975 23.08559046587216Q47.2329360780065 24.2080173347779 48.44637053087757 24.799566630552548Q49.65980498374865 25.391115926327195 51.32827735644638 25.391115926327195Q53.542795232936086 25.391115926327195 54.8320693391116 24.223185265438786Q56.12134344528711 23.05525460455038 56.12134344528711 21.083423618634885V17.503791982665224L56.60671722643554 14.257854821235103L56.12134344528711 11.04225352112676V7.25027085590466H58.851570964247024V21.083423618634885Q58.851570964247024 23.14626218851571 57.895991332611054 24.693391115926328Q56.94041170097508 26.240520043336947 55.226435536294694 27.12026002166847Q53.512459371614305 28.0 51.26760563380282 28.0ZM51.26760563380282 21.41711809317443Q49.29577464788733 21.41711809317443 47.73347778981582 20.47670639219935Q46.17118093174432 19.53629469122427 45.261105092091015 17.882990249187433Q44.351029252437705 16.229685807150595 44.351029252437705 14.166847237269772Q44.351029252437705 12.10400866738895 45.261105092091015 10.48104008667389Q46.17118093174432 8.85807150595883 47.73347778981582 7.90249187432286Q49.29577464788733 6.94691224268689 51.26760563380282 6.94691224268689Q52.966413867822325 6.94691224268689 54.27085590465873 7.61430119176598Q55.57529794149513 8.28169014084507 56.348862405200435 9.479956663055255Q57.12242686890575 10.67822318526544 57.1830985915493 12.286023835319611V16.10834236186349Q57.092091007583974 17.685807150595885 56.31852654387866 18.884073672806068Q55.54496208017335 20.08234019501625 54.24052004333694 20.74972914409534Q52.936078006500544 21.41711809317443 51.26760563380282 21.41711809317443ZM51.8136511375948 18.838569880823403Q53.14842903575298 18.838569880823403 54.16468039003251 18.262188515709646Q55.18093174431203 17.685807150595885 55.72697724810401 16.639219934994586Q56.273022751895994 15.592632719393283 56.273022751895994 14.19718309859155Q56.273022751895994 12.801733477789817 55.71180931744313 11.755146262188516Q55.15059588299025 10.708559046587215 54.14951245937162 10.117009750812567Q53.14842903575298 9.525460455037921 51.78331527627303 9.525460455037921Q50.41820151679307 9.525460455037921 49.386782231852656 10.117009750812567Q48.355362946912244 10.708559046587215 47.763813651137596 11.755146262188516Q47.17226435536295 12.801733477789817 47.17226435536295 14.166847237269772Q47.17226435536295 15.53196099674973 47.763813651137596 16.593716143011918Q48.355362946912244 17.655471289274107 49.40195016251354 18.247020585048755Q50.44853737811485 18.838569880823403 51.8136511375948 18.838569880823403Z M69.43878656554713 21.963163596966414Q67.31527627302276 21.963163596966414 65.61646803900325 20.96208017334778Q63.91765980498375 19.960996749729144 62.91657638136512 18.24702058504875Q61.91549295774648 16.533044420368363 61.91549295774648 14.409534127843987Q61.91549295774648 12.316359696641387 62.91657638136512 10.632719393282773Q63.91765980498375 8.94907908992416 65.61646803900325 7.947995666305525Q67.31527627302276 6.94691224268689 69.43878656554713 6.94691224268689Q71.53196099674973 6.94691224268689 73.24593716143012 7.932827735644637Q74.95991332611051 8.918743228602384 75.96099674972915 10.617551462621886Q76.96208017334779 12.316359696641387 76.96208017334779 14.409534127843987Q76.96208017334779 16.533044420368363 75.96099674972915 18.24702058504875Q74.95991332611051 19.960996749729144 73.24593716143012 20.96208017334778Q71.53196099674973 21.963163596966414 69.43878656554713 21.963163596966414ZM69.43878656554713 19.323943661971832Q70.80390032502709 19.323943661971832 71.86565547128927 18.68689057421452Q72.92741061755146 18.049837486457207 73.534127843987 16.942578548212353Q74.14084507042254 15.835319609967499 74.14084507042254 14.409534127843987Q74.14084507042254 13.014084507042254 73.51895991332611 11.921993499458289Q72.89707475622969 10.829902491874323 71.8504875406284 10.2080173347779Q70.80390032502709 9.586132177681474 69.43878656554713 9.586132177681474Q68.07367280606718 9.586132177681474 67.011917659805 10.2080173347779Q65.9501625135428 10.829902491874323 65.34344528710726 11.921993499458289Q64.73672806067172 13.014084507042254 64.73672806067172 14.409534127843987Q64.73672806067172 15.835319609967499 65.34344528710726 16.942578548212353Q65.9501625135428 18.049837486457207 67.011917659805 18.68689057421452Q68.07367280606718 19.323943661971832 69.43878656554713 19.323943661971832Z M84.60671722643553 21.963163596966414Q83.39328277356447 21.963163596966414 82.3163596966414 21.644637053087756Q81.23943661971832 21.3261105092091 80.329360780065 20.734561213434453Q79.4192849404117 20.143011917659805 78.75189599133262 19.323943661971832L80.51137594799567 17.564463705308775Q81.30010834236187 18.535211267605636 82.33152762730228 19.005417118093177Q83.36294691224269 19.475622968580716 84.63705308775732 19.475622968580716Q85.91115926327194 19.475622968580716 86.60888407367281 19.03575297941495Q87.30660888407368 18.595882990249187 87.30660888407368 17.80715059588299Q87.30660888407368 17.018418201516795 86.74539544962082 16.57854821235103Q86.18418201516793 16.138678223185266 85.3044420368364 15.850487540628386Q84.42470205850488 15.562296858071505 83.43878656554713 15.274106175514627Q82.45287107258939 14.985915492957748 81.57313109425786 14.530877573131095Q80.69339111592633 14.075839653304442 80.13217768147345 13.287107258938246Q79.57096424702058 12.498374864572048 79.57096424702058 11.193932827735646Q79.57096424702058 9.889490790899242 80.2080173347779 8.933911159263271Q80.84507042253522 7.978331527627303 81.98266522210184 7.4626218851570965Q83.12026002166847 6.94691224268689 84.72806067172264 6.94691224268689Q86.42686890574215 6.94691224268689 87.74647887323945 7.538461538461538Q89.06608884073674 8.130010834236186 89.91549295774648 9.313109425785482L88.15601300108342 11.072589382448538Q87.54929577464789 10.28385698808234 86.65438786565548 9.859154929577464Q85.75947995666306 9.43445287107259 84.63705308775732 9.43445287107259Q83.45395449620803 9.43445287107259 82.8320693391116 9.843986998916577Q82.21018418201517 10.253521126760564 82.21018418201517 10.981581798483207Q82.21018418201517 11.709642470205852 82.75622968580716 12.10400866738895Q83.30227518959914 12.498374864572048 84.19718309859155 12.77139761646804Q85.09209100758397 13.044420368364031 86.06283856988082 13.33261105092091Q87.03358613217769 13.62080173347779 87.91332611050922 14.10617551462622Q88.79306608884075 14.591549295774648 89.35427952329361 15.410617551462622Q89.91549295774648 16.229685807150595 89.91549295774648 17.564463705308775Q89.91549295774648 19.596966413867822 88.47453954496208 20.780065005417118Q87.03358613217769 21.963163596966414 84.60671722643553 21.963163596966414Z M99.65330444203684 21.963163596966414Q97.49945828819068 21.963163596966414 95.77031419284941 20.977248104008666Q94.04117009750813 19.99133261105092 93.04008667388949 18.29252437703142Q92.03900325027085 16.593716143011918 92.03900325027085 14.439869989165764Q92.03900325027085 12.316359696641387 93.0249187432286 10.617551462621886Q94.01083423618634 8.918743228602384 95.69447453954496 7.932827735644637Q97.37811484290357 6.94691224268689 99.47128927410617 6.94691224268689Q101.47345612134345 6.94691224268689 103.00541711809318 7.856988082340195Q104.53737811484291 8.7670639219935 105.40195016251354 10.37486457204767Q106.26652221018418 11.982665222101842 106.26652221018418 14.015167930660889Q106.26652221018418 14.318526543878658 106.2361863488624 14.66738894907909Q106.20585048754063 15.016251354279524 106.1148429035753 15.471289274106176H93.9501625135428V13.196099674972915H104.65872156013L103.65763813651138 14.075839653304442Q103.65763813651138 12.619718309859156 103.14192849404117 11.603466955579632Q102.62621885157097 10.587215601300109 101.68580715059588 10.026002166847238Q100.7453954496208 9.464788732394366 99.41061755146262 9.464788732394366Q98.01516793066088 9.464788732394366 96.9534127843987 10.071505958829903Q95.89165763813651 10.67822318526544 95.31527627302275 11.770314192849405Q94.73889490790899 12.86240520043337 94.73889490790899 14.348862405200434Q94.73889490790899 15.865655471289275 95.34561213434452 17.003250270855904Q95.95232936078007 18.140845070422536 97.07475622968582 18.76273022751896Q98.19718309859155 19.384615384615387 99.65330444203684 19.384615384615387Q100.86673889490791 19.384615384615387 101.88299024918743 18.95991332611051Q102.89924160346695 18.535211267605636 103.62730227518959 17.685807150595885L105.38678223185265 19.475622968580716Q104.35536294691224 20.68905742145179 102.85373781148428 21.3261105092091Q101.35211267605634 21.963163596966414 99.65330444203684 21.963163596966414Z M109.23943661971832 21.659804983748646V7.25027085590466H111.96966413867823V21.659804983748646ZM111.96966413867823 13.43878656554713 110.93824485373781 12.983748645720476Q110.93824485373781 10.223185265438786 112.21235102925243 8.58504875406284Q113.48645720476706 6.94691224268689 115.88299024918743 6.94691224268689Q116.9750812567714 6.94691224268689 117.85482123510293 7.326110509209101Q118.73456121343446 7.705308775731311 119.49295774647888 8.58504875406284L117.70314192849405 10.435536294691225Q117.2481040086674 9.950162513542795 116.70205850487541 9.737811484290358Q116.15601300108342 9.525460455037921 115.42795232936078 9.525460455037921Q113.91115926327194 9.525460455037921 112.94041170097509 10.496208017334778Q111.96966413867823 11.466955579631636 111.96966413867823 13.43878656554713Z M126.89490790899242 21.659804983748646 120.28169014084507 7.25027085590466H123.31527627302276L128.6240520043337 19.41495124593716H126.86457204767065L132.20368364030335 7.25027085590466H135.11592632719393L128.5027085590466 21.659804983748646Z M137.48212351029252 21.659804983748646V7.25027085590466H140.21235102925246V21.659804983748646ZM138.84723726977248 4.3683640303358615Q138.08884073672806 4.3683640303358615 137.60346695557962 3.867822318526544Q137.1180931744312 3.3672806067172267 137.1180931744312 2.6088840736728045Q137.1180931744312 1.8808234019501633 137.60346695557962 1.380281690140846Q138.08884073672806 0.8797399783315285 138.84723726977248 0.8797399783315285Q139.60563380281693 0.8797399783315285 140.09100758396534 1.380281690140846Q140.57638136511378 1.8808234019501633 140.57638136511378 2.6088840736728045Q140.57638136511378 3.3672806067172267 140.09100758396534 3.867822318526544Q139.60563380281693 4.3683640303358615 138.84723726977248 4.3683640303358615Z M148.82773564463707 21.963163596966414Q147.614301191766 21.963163596966414 146.5373781148429 21.644637053087756Q145.46045503791984 21.3261105092091 144.55037919826654 20.734561213434453Q143.64030335861324 20.143011917659805 142.97291440953413 19.323943661971832L144.73239436619718 17.564463705308775Q145.5211267605634 18.535211267605636 146.5525460455038 19.005417118093177Q147.58396533044422 19.475622968580716 148.85807150595883 19.475622968580716Q150.13217768147348 19.475622968580716 150.82990249187435 19.03575297941495Q151.5276273022752 18.595882990249187 151.5276273022752 17.80715059588299Q151.5276273022752 17.018418201516795 150.96641386782233 16.57854821235103Q150.40520043336946 16.138678223185266 149.52546045503794 15.850487540628386Q148.6457204767064 15.562296858071505 147.65980498374864 15.274106175514627Q146.6738894907909 14.985915492957748 145.7941495124594 14.530877573131095Q144.91440953412786 14.075839653304442 144.353196099675 13.287107258938246Q143.79198266522212 12.498374864572048 143.79198266522212 11.193932827735646Q143.79198266522212 9.889490790899242 144.42903575297942 8.933911159263271Q145.06608884073674 7.978331527627303 146.20368364030338 7.4626218851570965Q147.34127843987 6.94691224268689 148.94907908992417 6.94691224268689Q150.64788732394368 6.94691224268689 151.96749729144096 7.538461538461538Q153.28710725893825 8.130010834236186 154.136511375948 9.313109425785482L152.37703141928495 11.072589382448538Q151.7703141928494 10.28385698808234 150.875406283857 9.859154929577464Q149.9804983748646 9.43445287107259 148.85807150595883 9.43445287107259Q147.67497291440955 9.43445287107259 147.0530877573131 9.843986998916577Q146.4312026002167 10.253521126760564 146.4312026002167 10.981581798483207Q146.4312026002167 11.709642470205852 146.97724810400868 12.10400866738895Q147.52329360780067 12.498374864572048 148.4182015167931 12.77139761646804Q149.31310942578548 13.044420368364031 150.28385698808233 13.33261105092091Q151.2546045503792 13.62080173347779 152.13434452871076 14.10617551462622Q153.01408450704227 14.591549295774648 153.57529794149514 15.410617551462622Q154.136511375948 16.229685807150595 154.136511375948 17.564463705308775Q154.136511375948 19.596966413867822 152.6955579631636 20.780065005417118Q151.2546045503792 21.963163596966414 148.82773564463707 21.963163596966414Z " fill="rgb(0,0,0)" transform="translate(-2.4875406283856987, 0)" /></g></svg>