<svg xmlns="http://www.w3.org/2000/svg" width="148" height="70" viewBox="0 0 148 70"><defs><style>.cls-1 {fill:#e12427;}.cls-1,.cls-2 {fill-rule:evenodd;}.cls-2 {fill:#292929;}</style></defs><path class="cls-1" d="M99.924,36.195l0.005,0L80.945,3.937h0l-0.231-.392-0.02.012a8.1,8.1,0,0,0-10.7-2.5,7.909,7.909,0,0,0-2.687,2.5l-0.017-.01L48.072,36.192l0.007,0A7.7,7.7,0,0,0,47,40.125a7.943,7.943,0,0,0,8.019,7.866H93.448V47.968a7.926,7.926,0,0,0,7.557-7.843A7.708,7.708,0,0,0,99.924,36.195ZM69.229,5A5.522,5.522,0,0,1,71.2,3.116a5.655,5.655,0,0,1,7.645,2.009,5.4,5.4,0,0,1-.076,5.617l-2.663,4.709L74,19.032l-1.345,2.284L66.214,32.261h-11.2a8.133,8.133,0,0,0-2.11.285L66.253,9.871ZM74,23.6l5.1,8.66H68.9ZM60.665,45.707l-5.648-.09a5.491,5.491,0,1,1,0-10.98c1.135,0,2.8-.047,2.8-0.047s1.656-.044,2.852-0.044H80.442l5.6,9.513,0.006,0a7.9,7.9,0,0,0,1.292,1.652H60.665Zm32.322-.09a5.61,5.61,0,0,1-4.973-2.969l-2.774-4.52L75.345,21.316l5.83-9.905L81.161,11.4a7.791,7.791,0,0,0,.591-1.525L95.093,32.544l2.817,4.972a5.37,5.37,0,0,1,.673,2.609A5.545,5.545,0,0,1,92.987,45.616Z"/><path class="cls-2" d="M2.359,68.075H0.01L4.47,60.01H7.452l4.424,8.065H9.512L8.432,66.041H3.452L2.359,68.075h0Zm1.9-3.556H7.621l-1.6-3H5.924l-1.662,3h0Zm8.326,3.556V60.01h2v3.01h1.186l3.675-3.01h3.018L17.51,63.789l5.153,4.286H19.7l-3.888-3.452H14.589v3.452h-2Zm24.3-8.065H33.148L30.36,66.471H30.238L27.447,60.01H23.7v8.065h2.012V61.615h0.267l2.885,6.459h2.86l2.885-6.459h0.266v6.459h2.012V60.01h0Zm3.149,8.065H37.691l4.46-8.065h2.982l4.424,8.065H47.193l-1.08-2.034h-4.98L40.04,68.075h0Zm1.9-3.556H45.3l-1.6-3H43.606l-1.663,3h0Zm22.326,3.556H50.4V60.01h2.012v6.461H56.33V60.01h2.012v6.461h3.915V60.01h2.012v8.065h0ZM66.026,63.5h4.945v1.6H66.026V63.5h0Zm8.9-3.486H72.2l3.877,3.918-4.35,4.147h2.956l2.984-3.184,2.984,3.184H83.6l-4.349-4.147,3.876-3.918H80.4l-2.739,2.94-2.739-2.94h0ZM86.34,65.123a2.006,2.006,0,0,0,.146.823,0.783,0.783,0,0,0,.471.406,3.017,3.017,0,0,0,.962.118h2.667a3.275,3.275,0,0,0,.99-0.114,0.729,0.729,0,0,0,.457-0.4,2.192,2.192,0,0,0,.127-0.848V63.055a2.088,2.088,0,0,0-.152-0.9,0.824,0.824,0,0,0-.493-0.425,3.048,3.048,0,0,0-.965-0.118h-2.6a2.964,2.964,0,0,0-.977.124,0.8,0.8,0,0,0-.479.43,2.413,2.413,0,0,0-.156.9v2.057h0Zm7.83,0.2a4.757,4.757,0,0,1-.147,1.3,1.808,1.808,0,0,1-.491.837,2.1,2.1,0,0,1-.933.471,6.03,6.03,0,0,1-1.471.151H87.433A5.642,5.642,0,0,1,86,67.918a2.276,2.276,0,0,1-.958-0.488A1.944,1.944,0,0,1,84.5,66.58a4.078,4.078,0,0,1-.169-1.259V62.869a4.838,4.838,0,0,1,.165-1.384,1.874,1.874,0,0,1,.528-0.872,2.1,2.1,0,0,1,.941-0.463,6.448,6.448,0,0,1,1.471-.14h3.695a5.054,5.054,0,0,1,1.745.248,1.768,1.768,0,0,1,.978.873,3.887,3.887,0,0,1,.319,1.737v2.452h0Zm10.776-5.311v8.065h-2.012V61.614H98.207v3.533q0,2.929-2.39,2.928H94.971v-1.6a1.689,1.689,0,0,0,.779-0.139,0.735,0.735,0,0,0,.351-0.464,3.564,3.564,0,0,0,.094-0.942V60.01h8.751Zm1.568,6.461a2.95,2.95,0,0,0,.775-1.118,4.263,4.263,0,0,0,.228-1.486V60.01h8.412v6.461h0.934V70h-1.831V68.075h-7.248V70h-1.842V66.471h0.572Zm7.4,0V61.614h-4.46v2.65a3.968,3.968,0,0,1-.164,1.187,3.462,3.462,0,0,1-.529,1.021h5.153Zm14.907,1.6V60.01h-3.382l-5.127,6.461h-0.279V60.01h-2.012v8.065h3.457l5.052-6.459h0.279v6.459h2.012Zm1.406,0V60.01h2.011V63.1h5.188V60.01h2.024v8.065h-2.024v-3.37h-5.188v3.37H130.23Zm10.557-8.065v8.065H142.8V61.615H148V60.01h-7.211Z"/></svg>